<svg xmlns="http://www.w3.org/2000/svg" x="0px" y="0px" width="100" height="100" viewBox="0,0,256,256">
<g fill="#13a242" fill-rule="nonzero" stroke="none" stroke-width="1" stroke-linecap="butt" stroke-linejoin="miter" stroke-miterlimit="10" stroke-dasharray="" stroke-dashoffset="0" font-family="none" font-weight="none" font-size="none" text-anchor="none" style="mix-blend-mode: normal"><g transform="scale(8,8)"><path d="M24.5,7.5c-2.3,-2.3 -5.3,-3.5 -8.5,-3.5c-6.5,0 -11.9,5.4 -11.9,11.9c0,2.1 0.5,4.2 1.6,6l-1.7,6.2l6.3,-1.7c1.7,1 3.7,1.5 5.7,1.5v0v0c6.6,0 11.9,-5.4 12,-11.9c0,-3.2 -1.2,-6.2 -3.5,-8.5zM16,25.9v0c-1.8,0 -3.5,-0.5 -5.1,-1.4l-0.4,-0.2l-3.8,1l1,-3.7l-0.2,-0.4c-1,-1.6 -1.5,-3.4 -1.5,-5.3c0,-5.5 4.5,-9.9 9.9,-9.9c2.7,0 5.1,1 7,2.9c1.9,1.9 2.9,4.4 2.9,7c0.2,5.5 -4.3,10 -9.8,10zM21.5,18.4c-0.3,-0.1 -1.8,-0.9 -2,-1c-0.3,-0.1 -0.5,-0.1 -0.7,0.1c-0.2,0.3 -0.8,1 -0.9,1.2c-0.1,0.2 -0.3,0.2 -0.6,0.1c-0.3,-0.1 -1.3,-0.5 -2.4,-1.5c-0.9,-0.8 -1.5,-1.8 -1.7,-2.1c-0.2,-0.3 0,-0.5 0.1,-0.6c0.1,-0.1 0.3,-0.3 0.4,-0.5c0.1,-0.2 0.2,-0.3 0.3,-0.5c0.1,-0.2 0.1,-0.4 0,-0.5c-0.1,-0.1 -0.7,-1.6 -0.9,-2.2c-0.2,-0.6 -0.5,-0.5 -0.7,-0.5c-0.2,0 -0.4,0 -0.6,0c-0.2,0 -0.5,0.1 -0.8,0.4c-0.3,0.3 -1,1 -1,2.5c0,1.5 1.1,2.9 1.2,3.1c0.1,0.2 2.1,3.2 5.1,4.5c0.7,0.3 1.3,0.5 1.7,0.6c0.7,0.2 1.4,0.2 1.9,0.1c0.6,-0.1 1.8,-0.7 2,-1.4c0.2,-0.7 0.2,-1.3 0.2,-1.4c-0.1,-0.1 -0.3,-0.2 -0.6,-0.4z"></path></g></g>
</svg>